<mxfile host="app.diagrams.net" modified="2021-06-03T03:27:08.702Z" agent="5.0 (Macintosh; Intel Mac OS X 10_15_7) AppleWebKit/537.36 (KHTML, like Gecko) Chrome/90.0.4430.212 Safari/537.36" etag="v1805NZbe5A7eJEPOVWN" version="14.7.0" type="github">
  <diagram id="MF42RHRKSYALjcaX30sO" name="Page-1">
    <mxGraphModel dx="1186" dy="557" grid="1" gridSize="10" guides="1" tooltips="1" connect="1" arrows="1" fold="1" page="1" pageScale="1" pageWidth="850" pageHeight="1100" math="0" shadow="0">
      <root>
        <mxCell id="0" />
        <mxCell id="1" parent="0" />
        <mxCell id="z71Mpb9uZYnYrAH-iIIc-165" style="edgeStyle=orthogonalEdgeStyle;orthogonalLoop=1;jettySize=auto;html=1;exitX=0.25;exitY=0;exitDx=0;exitDy=0;entryX=0;entryY=0.5;entryDx=0;entryDy=0;sketch=1;strokeColor=#788AA3;fontColor=#46495D;" parent="1" edge="1">
          <mxGeometry relative="1" as="geometry">
            <mxPoint x="50" y="49" as="targetPoint" />
          </mxGeometry>
        </mxCell>
        <mxCell id="z71Mpb9uZYnYrAH-iIIc-426" style="edgeStyle=orthogonalEdgeStyle;curved=0;rounded=1;sketch=1;orthogonalLoop=1;jettySize=auto;html=1;exitX=1;exitY=0.75;exitDx=0;exitDy=0;strokeColor=#788AA3;fontColor=#46495D;" parent="1" source="z71Mpb9uZYnYrAH-iIIc-362" target="z71Mpb9uZYnYrAH-iIIc-383" edge="1">
          <mxGeometry relative="1" as="geometry">
            <Array as="points">
              <mxPoint x="540" y="591" />
              <mxPoint x="540" y="690" />
              <mxPoint x="130" y="690" />
              <mxPoint x="130" y="861" />
            </Array>
          </mxGeometry>
        </mxCell>
        <mxCell id="z71Mpb9uZYnYrAH-iIIc-362" value="Library" style="swimlane;fontStyle=1;align=center;verticalAlign=top;childLayout=stackLayout;horizontal=1;startSize=26;horizontalStack=0;resizeParent=1;resizeParentMax=0;resizeLast=0;collapsible=1;marginBottom=0;rounded=1;sketch=1;fillColor=#B2C9AB;strokeColor=#788AA3;fontColor=#46495D;" parent="1" vertex="1">
          <mxGeometry x="210" y="468" width="310" height="164" as="geometry" />
        </mxCell>
        <mxCell id="z71Mpb9uZYnYrAH-iIIc-367" value="+ ns: string" style="text;strokeColor=none;fillColor=none;align=left;verticalAlign=top;spacingLeft=4;spacingRight=4;overflow=hidden;rotatable=0;points=[[0,0.5],[1,0.5]];portConstraint=eastwest;fontColor=#46495D;" parent="z71Mpb9uZYnYrAH-iIIc-362" vertex="1">
          <mxGeometry y="26" width="310" height="26" as="geometry" />
        </mxCell>
        <mxCell id="z71Mpb9uZYnYrAH-iIIc-369" value="+ dispatch_key_: optional" style="text;strokeColor=none;fillColor=none;align=left;verticalAlign=top;spacingLeft=4;spacingRight=4;overflow=hidden;rotatable=0;points=[[0,0.5],[1,0.5]];portConstraint=eastwest;fontColor=#46495D;" parent="z71Mpb9uZYnYrAH-iIIc-362" vertex="1">
          <mxGeometry y="52" width="310" height="26" as="geometry" />
        </mxCell>
        <mxCell id="z71Mpb9uZYnYrAH-iIIc-363" value="+ registrars: std::vector&lt;c10::RegistrationHandleRAII&gt;" style="text;strokeColor=none;fillColor=none;align=left;verticalAlign=top;spacingLeft=4;spacingRight=4;overflow=hidden;rotatable=0;points=[[0,0.5],[1,0.5]];portConstraint=eastwest;fontColor=#46495D;" parent="z71Mpb9uZYnYrAH-iIIc-362" vertex="1">
          <mxGeometry y="78" width="310" height="26" as="geometry" />
        </mxCell>
        <mxCell id="z71Mpb9uZYnYrAH-iIIc-364" value="" style="line;strokeWidth=1;fillColor=none;align=left;verticalAlign=middle;spacingTop=-1;spacingLeft=3;spacingRight=3;rotatable=0;labelPosition=right;points=[];portConstraint=eastwest;strokeColor=#788AA3;fontColor=#46495D;" parent="z71Mpb9uZYnYrAH-iIIc-362" vertex="1">
          <mxGeometry y="104" width="310" height="8" as="geometry" />
        </mxCell>
        <mxCell id="z71Mpb9uZYnYrAH-iIIc-365" value="+ def(string name, Func f): Library&amp;" style="text;strokeColor=none;fillColor=none;align=left;verticalAlign=top;spacingLeft=4;spacingRight=4;overflow=hidden;rotatable=0;points=[[0,0.5],[1,0.5]];portConstraint=eastwest;fontColor=#46495D;" parent="z71Mpb9uZYnYrAH-iIIc-362" vertex="1">
          <mxGeometry y="112" width="310" height="26" as="geometry" />
        </mxCell>
        <mxCell id="z71Mpb9uZYnYrAH-iIIc-366" value="+ impl(string name, Func f): Library&amp;" style="text;strokeColor=none;fillColor=none;align=left;verticalAlign=top;spacingLeft=4;spacingRight=4;overflow=hidden;rotatable=0;points=[[0,0.5],[1,0.5]];portConstraint=eastwest;fontColor=#46495D;" parent="z71Mpb9uZYnYrAH-iIIc-362" vertex="1">
          <mxGeometry y="138" width="310" height="26" as="geometry" />
        </mxCell>
        <mxCell id="z71Mpb9uZYnYrAH-iIIc-447" style="edgeStyle=orthogonalEdgeStyle;curved=0;rounded=1;sketch=1;orthogonalLoop=1;jettySize=auto;html=1;exitX=0.25;exitY=1;exitDx=0;exitDy=0;strokeColor=#788AA3;fontColor=#46495D;" parent="1" source="z71Mpb9uZYnYrAH-iIIc-370" target="z71Mpb9uZYnYrAH-iIIc-369" edge="1">
          <mxGeometry relative="1" as="geometry">
            <Array as="points">
              <mxPoint x="580" y="390" />
              <mxPoint x="580" y="533" />
            </Array>
          </mxGeometry>
        </mxCell>
        <mxCell id="z71Mpb9uZYnYrAH-iIIc-448" value="set Dispatch Key for impl" style="edgeLabel;html=1;align=center;verticalAlign=middle;resizable=0;points=[];fontColor=#46495D;" parent="z71Mpb9uZYnYrAH-iIIc-447" vertex="1" connectable="0">
          <mxGeometry x="0.6552" y="3" relative="1" as="geometry">
            <mxPoint x="-12" y="-86" as="offset" />
          </mxGeometry>
        </mxCell>
        <mxCell id="z71Mpb9uZYnYrAH-iIIc-370" value="TORCH_LIBRARY_IMPL" style="html=1;rounded=1;sketch=1;fillColor=#B2C9AB;strokeColor=#788AA3;fontColor=#46495D;" parent="1" vertex="1">
          <mxGeometry x="500" y="340" width="160" height="50" as="geometry" />
        </mxCell>
        <mxCell id="z71Mpb9uZYnYrAH-iIIc-419" style="edgeStyle=orthogonalEdgeStyle;curved=0;rounded=1;sketch=1;orthogonalLoop=1;jettySize=auto;html=1;exitX=0.5;exitY=1;exitDx=0;exitDy=0;entryX=0.25;entryY=0;entryDx=0;entryDy=0;strokeColor=#788AA3;fontColor=#46495D;" parent="1" source="z71Mpb9uZYnYrAH-iIIc-374" target="z71Mpb9uZYnYrAH-iIIc-362" edge="1">
          <mxGeometry relative="1" as="geometry" />
        </mxCell>
        <mxCell id="z71Mpb9uZYnYrAH-iIIc-420" value="Constructor" style="edgeLabel;html=1;align=center;verticalAlign=middle;resizable=0;points=[];fontColor=#46495D;" parent="z71Mpb9uZYnYrAH-iIIc-419" vertex="1" connectable="0">
          <mxGeometry x="0.0778" y="2" relative="1" as="geometry">
            <mxPoint as="offset" />
          </mxGeometry>
        </mxCell>
        <mxCell id="z71Mpb9uZYnYrAH-iIIc-421" style="edgeStyle=orthogonalEdgeStyle;curved=0;rounded=1;sketch=1;orthogonalLoop=1;jettySize=auto;html=1;exitX=0.5;exitY=1;exitDx=0;exitDy=0;entryX=0;entryY=0.5;entryDx=0;entryDy=0;strokeColor=#788AA3;fontColor=#46495D;" parent="1" source="z71Mpb9uZYnYrAH-iIIc-374" target="z71Mpb9uZYnYrAH-iIIc-363" edge="1">
          <mxGeometry relative="1" as="geometry" />
        </mxCell>
        <mxCell id="z71Mpb9uZYnYrAH-iIIc-422" value="Add One Library Unique in ns&amp;nbsp;" style="edgeLabel;html=1;align=center;verticalAlign=middle;resizable=0;points=[];fontColor=#46495D;" parent="z71Mpb9uZYnYrAH-iIIc-421" vertex="1" connectable="0">
          <mxGeometry x="-0.0909" y="1" relative="1" as="geometry">
            <mxPoint as="offset" />
          </mxGeometry>
        </mxCell>
        <mxCell id="z71Mpb9uZYnYrAH-iIIc-374" value="TORCH_LIBRARY" style="html=1;rounded=1;sketch=1;fillColor=#B2C9AB;strokeColor=#788AA3;fontColor=#46495D;" parent="1" vertex="1">
          <mxGeometry x="70" y="330" width="110" height="50" as="geometry" />
        </mxCell>
        <mxCell id="z71Mpb9uZYnYrAH-iIIc-376" value="Dispatcher" style="swimlane;fontStyle=1;align=center;verticalAlign=top;childLayout=stackLayout;horizontal=1;startSize=26;horizontalStack=0;resizeParent=1;resizeParentMax=0;resizeLast=0;collapsible=1;marginBottom=0;rounded=1;sketch=1;fillColor=#B2C9AB;strokeColor=#788AA3;fontColor=#46495D;" parent="1" vertex="1">
          <mxGeometry x="150" y="710" width="460" height="264" as="geometry" />
        </mxCell>
        <mxCell id="z71Mpb9uZYnYrAH-iIIc-377" value="+operators_: std::list&lt;OperatorDef&gt;" style="text;strokeColor=none;fillColor=none;align=left;verticalAlign=top;spacingLeft=4;spacingRight=4;overflow=hidden;rotatable=0;points=[[0,0.5],[1,0.5]];portConstraint=eastwest;fontColor=#46495D;" parent="z71Mpb9uZYnYrAH-iIIc-376" vertex="1">
          <mxGeometry y="26" width="460" height="26" as="geometry" />
        </mxCell>
        <mxCell id="z71Mpb9uZYnYrAH-iIIc-378" value="+ operatorLookupTable_:  LeftRight&lt;ska::flat_hash_map&lt;OperatorName, OperatorHandle&gt;&gt;" style="text;strokeColor=none;fillColor=none;align=left;verticalAlign=top;spacingLeft=4;spacingRight=4;overflow=hidden;rotatable=0;points=[[0,0.5],[1,0.5]];portConstraint=eastwest;fontColor=#46495D;" parent="z71Mpb9uZYnYrAH-iIIc-376" vertex="1">
          <mxGeometry y="52" width="460" height="26" as="geometry" />
        </mxCell>
        <mxCell id="z71Mpb9uZYnYrAH-iIIc-379" value="+ libraries_: ska::flat_hash_map&lt;std::string, std::string&gt;" style="text;strokeColor=none;fillColor=none;align=left;verticalAlign=top;spacingLeft=4;spacingRight=4;overflow=hidden;rotatable=0;points=[[0,0.5],[1,0.5]];portConstraint=eastwest;fontColor=#46495D;" parent="z71Mpb9uZYnYrAH-iIIc-376" vertex="1">
          <mxGeometry y="78" width="460" height="26" as="geometry" />
        </mxCell>
        <mxCell id="z71Mpb9uZYnYrAH-iIIc-380" value="" style="line;strokeWidth=1;fillColor=none;align=left;verticalAlign=middle;spacingTop=-1;spacingLeft=3;spacingRight=3;rotatable=0;labelPosition=right;points=[];portConstraint=eastwest;strokeColor=#788AA3;fontColor=#46495D;" parent="z71Mpb9uZYnYrAH-iIIc-376" vertex="1">
          <mxGeometry y="104" width="460" height="8" as="geometry" />
        </mxCell>
        <mxCell id="z71Mpb9uZYnYrAH-iIIc-381" value="+ registerImpl" style="text;strokeColor=none;fillColor=none;align=left;verticalAlign=top;spacingLeft=4;spacingRight=4;overflow=hidden;rotatable=0;points=[[0,0.5],[1,0.5]];portConstraint=eastwest;fontColor=#46495D;" parent="z71Mpb9uZYnYrAH-iIIc-376" vertex="1">
          <mxGeometry y="112" width="460" height="26" as="geometry" />
        </mxCell>
        <mxCell id="z71Mpb9uZYnYrAH-iIIc-383" value="+ registerDef" style="text;strokeColor=none;fillColor=none;align=left;verticalAlign=top;spacingLeft=4;spacingRight=4;overflow=hidden;rotatable=0;points=[[0,0.5],[1,0.5]];portConstraint=eastwest;fontColor=#46495D;" parent="z71Mpb9uZYnYrAH-iIIc-376" vertex="1">
          <mxGeometry y="138" width="460" height="22" as="geometry" />
        </mxCell>
        <mxCell id="z71Mpb9uZYnYrAH-iIIc-392" value="+ registerLibrary" style="text;strokeColor=none;fillColor=none;align=left;verticalAlign=top;spacingLeft=4;spacingRight=4;overflow=hidden;rotatable=0;points=[[0,0.5],[1,0.5]];portConstraint=eastwest;fontColor=#46495D;" parent="z71Mpb9uZYnYrAH-iIIc-376" vertex="1">
          <mxGeometry y="160" width="460" height="26" as="geometry" />
        </mxCell>
        <mxCell id="z71Mpb9uZYnYrAH-iIIc-474" value="+ findOp" style="text;strokeColor=none;fillColor=none;align=left;verticalAlign=top;spacingLeft=4;spacingRight=4;overflow=hidden;rotatable=0;points=[[0,0.5],[1,0.5]];portConstraint=eastwest;fontColor=#46495D;" parent="z71Mpb9uZYnYrAH-iIIc-376" vertex="1">
          <mxGeometry y="186" width="460" height="26" as="geometry" />
        </mxCell>
        <mxCell id="z71Mpb9uZYnYrAH-iIIc-475" value="+ call" style="text;strokeColor=none;fillColor=none;align=left;verticalAlign=top;spacingLeft=4;spacingRight=4;overflow=hidden;rotatable=0;points=[[0,0.5],[1,0.5]];portConstraint=eastwest;fontColor=#46495D;" parent="z71Mpb9uZYnYrAH-iIIc-376" vertex="1">
          <mxGeometry y="212" width="460" height="26" as="geometry" />
        </mxCell>
        <mxCell id="z71Mpb9uZYnYrAH-iIIc-382" value="+ redispatch" style="text;strokeColor=none;fillColor=none;align=left;verticalAlign=top;spacingLeft=4;spacingRight=4;overflow=hidden;rotatable=0;points=[[0,0.5],[1,0.5]];portConstraint=eastwest;fontColor=#46495D;" parent="z71Mpb9uZYnYrAH-iIIc-376" vertex="1">
          <mxGeometry y="238" width="460" height="26" as="geometry" />
        </mxCell>
        <mxCell id="z71Mpb9uZYnYrAH-iIIc-384" value="OperatorHandle" style="swimlane;fontStyle=1;align=center;verticalAlign=top;childLayout=stackLayout;horizontal=1;startSize=26;horizontalStack=0;resizeParent=1;resizeParentMax=0;resizeLast=0;collapsible=1;marginBottom=0;rounded=1;sketch=1;fillColor=#B2C9AB;strokeColor=#788AA3;fontColor=#46495D;" parent="1" vertex="1">
          <mxGeometry x="150" y="1030" width="460" height="86" as="geometry" />
        </mxCell>
        <mxCell id="z71Mpb9uZYnYrAH-iIIc-385" value="+operatorDef_: Dispatcher::OperatorDef*" style="text;strokeColor=none;fillColor=none;align=left;verticalAlign=top;spacingLeft=4;spacingRight=4;overflow=hidden;rotatable=0;points=[[0,0.5],[1,0.5]];portConstraint=eastwest;fontColor=#46495D;" parent="z71Mpb9uZYnYrAH-iIIc-384" vertex="1">
          <mxGeometry y="26" width="460" height="26" as="geometry" />
        </mxCell>
        <mxCell id="z71Mpb9uZYnYrAH-iIIc-386" value="+ operatorIterator_:  std::list&lt;Dispatcher::OperatorDef&gt;::iterator" style="text;strokeColor=none;fillColor=none;align=left;verticalAlign=top;spacingLeft=4;spacingRight=4;overflow=hidden;rotatable=0;points=[[0,0.5],[1,0.5]];portConstraint=eastwest;fontColor=#46495D;" parent="z71Mpb9uZYnYrAH-iIIc-384" vertex="1">
          <mxGeometry y="52" width="460" height="26" as="geometry" />
        </mxCell>
        <mxCell id="z71Mpb9uZYnYrAH-iIIc-388" value="" style="line;strokeWidth=1;fillColor=none;align=left;verticalAlign=middle;spacingTop=-1;spacingLeft=3;spacingRight=3;rotatable=0;labelPosition=right;points=[];portConstraint=eastwest;strokeColor=#788AA3;fontColor=#46495D;" parent="z71Mpb9uZYnYrAH-iIIc-384" vertex="1">
          <mxGeometry y="78" width="460" height="8" as="geometry" />
        </mxCell>
        <mxCell id="z71Mpb9uZYnYrAH-iIIc-393" value="OperatorDef" style="swimlane;fontStyle=1;align=center;verticalAlign=top;childLayout=stackLayout;horizontal=1;startSize=26;horizontalStack=0;resizeParent=1;resizeParentMax=0;resizeLast=0;collapsible=1;marginBottom=0;rounded=1;sketch=1;fillColor=#B2C9AB;strokeColor=#788AA3;fontColor=#46495D;" parent="1" vertex="1">
          <mxGeometry x="300" y="1200" width="180" height="112" as="geometry" />
        </mxCell>
        <mxCell id="z71Mpb9uZYnYrAH-iIIc-403" value="+op: impl::OperatorEntry" style="text;strokeColor=none;fillColor=none;align=left;verticalAlign=top;spacingLeft=4;spacingRight=4;overflow=hidden;rotatable=0;points=[[0,0.5],[1,0.5]];portConstraint=eastwest;fontColor=#46495D;" parent="z71Mpb9uZYnYrAH-iIIc-393" vertex="1">
          <mxGeometry y="26" width="180" height="26" as="geometry" />
        </mxCell>
        <mxCell id="z71Mpb9uZYnYrAH-iIIc-394" value="+def_count: size_t" style="text;strokeColor=none;fillColor=none;align=left;verticalAlign=top;spacingLeft=4;spacingRight=4;overflow=hidden;rotatable=0;points=[[0,0.5],[1,0.5]];portConstraint=eastwest;fontColor=#46495D;" parent="z71Mpb9uZYnYrAH-iIIc-393" vertex="1">
          <mxGeometry y="52" width="180" height="26" as="geometry" />
        </mxCell>
        <mxCell id="z71Mpb9uZYnYrAH-iIIc-404" value="+def_and_impl_count: size_t" style="text;strokeColor=none;fillColor=none;align=left;verticalAlign=top;spacingLeft=4;spacingRight=4;overflow=hidden;rotatable=0;points=[[0,0.5],[1,0.5]];portConstraint=eastwest;fontColor=#46495D;" parent="z71Mpb9uZYnYrAH-iIIc-393" vertex="1">
          <mxGeometry y="78" width="180" height="26" as="geometry" />
        </mxCell>
        <mxCell id="z71Mpb9uZYnYrAH-iIIc-396" value="" style="line;strokeWidth=1;fillColor=none;align=left;verticalAlign=middle;spacingTop=-1;spacingLeft=3;spacingRight=3;rotatable=0;labelPosition=right;points=[];portConstraint=eastwest;strokeColor=#788AA3;fontColor=#46495D;" parent="z71Mpb9uZYnYrAH-iIIc-393" vertex="1">
          <mxGeometry y="104" width="180" height="8" as="geometry" />
        </mxCell>
        <mxCell id="z71Mpb9uZYnYrAH-iIIc-409" value="OperatorEntry" style="swimlane;fontStyle=1;align=center;verticalAlign=top;childLayout=stackLayout;horizontal=1;startSize=26;horizontalStack=0;resizeParent=1;resizeParentMax=0;resizeLast=0;collapsible=1;marginBottom=0;rounded=1;sketch=1;fillColor=#B2C9AB;strokeColor=#788AA3;fontColor=#46495D;" parent="1" vertex="1">
          <mxGeometry x="160" y="1370" width="460" height="190" as="geometry" />
        </mxCell>
        <mxCell id="z71Mpb9uZYnYrAH-iIIc-410" value="+dispatchTable_: std::array&lt;KernelFunction, static_cast&lt;uint8_t&gt;(DispatchKey::NumDispatchKeys)&gt;" style="text;strokeColor=none;fillColor=none;align=left;verticalAlign=top;spacingLeft=4;spacingRight=4;overflow=hidden;rotatable=0;points=[[0,0.5],[1,0.5]];portConstraint=eastwest;fontColor=#46495D;" parent="z71Mpb9uZYnYrAH-iIIc-409" vertex="1">
          <mxGeometry y="26" width="460" height="26" as="geometry" />
        </mxCell>
        <mxCell id="z71Mpb9uZYnYrAH-iIIc-417" value="+dispatchKeyExtractor_: DispatchKeyExtractor" style="text;strokeColor=none;fillColor=none;align=left;verticalAlign=top;spacingLeft=4;spacingRight=4;overflow=hidden;rotatable=0;points=[[0,0.5],[1,0.5]];portConstraint=eastwest;fontColor=#46495D;" parent="z71Mpb9uZYnYrAH-iIIc-409" vertex="1">
          <mxGeometry y="52" width="460" height="26" as="geometry" />
        </mxCell>
        <mxCell id="z71Mpb9uZYnYrAH-iIIc-411" value="+kernels_: ska::flat_hash_map&lt;DispatchKey, std::list&lt;AnnotatedKernel&gt;&gt;" style="text;strokeColor=none;fillColor=none;align=left;verticalAlign=top;spacingLeft=4;spacingRight=4;overflow=hidden;rotatable=0;points=[[0,0.5],[1,0.5]];portConstraint=eastwest;fontColor=#46495D;" parent="z71Mpb9uZYnYrAH-iIIc-409" vertex="1">
          <mxGeometry y="78" width="460" height="26" as="geometry" />
        </mxCell>
        <mxCell id="z71Mpb9uZYnYrAH-iIIc-412" value="" style="line;strokeWidth=1;fillColor=none;align=left;verticalAlign=middle;spacingTop=-1;spacingLeft=3;spacingRight=3;rotatable=0;labelPosition=right;points=[];portConstraint=eastwest;strokeColor=#788AA3;fontColor=#46495D;" parent="z71Mpb9uZYnYrAH-iIIc-409" vertex="1">
          <mxGeometry y="104" width="460" height="8" as="geometry" />
        </mxCell>
        <mxCell id="z71Mpb9uZYnYrAH-iIIc-431" value="registerKernel -&gt;UpdateDispatchTable" style="text;strokeColor=none;fillColor=none;align=left;verticalAlign=top;spacingLeft=4;spacingRight=4;overflow=hidden;rotatable=0;points=[[0,0.5],[1,0.5]];portConstraint=eastwest;fontColor=#46495D;" parent="z71Mpb9uZYnYrAH-iIIc-409" vertex="1">
          <mxGeometry y="112" width="460" height="26" as="geometry" />
        </mxCell>
        <mxCell id="z71Mpb9uZYnYrAH-iIIc-418" value="registerSchema" style="text;strokeColor=none;fillColor=none;align=left;verticalAlign=top;spacingLeft=4;spacingRight=4;overflow=hidden;rotatable=0;points=[[0,0.5],[1,0.5]];portConstraint=eastwest;fontColor=#46495D;" parent="z71Mpb9uZYnYrAH-iIIc-409" vertex="1">
          <mxGeometry y="138" width="460" height="26" as="geometry" />
        </mxCell>
        <mxCell id="z71Mpb9uZYnYrAH-iIIc-413" value="lookup" style="text;strokeColor=none;fillColor=none;align=left;verticalAlign=top;spacingLeft=4;spacingRight=4;overflow=hidden;rotatable=0;points=[[0,0.5],[1,0.5]];portConstraint=eastwest;fontColor=#46495D;" parent="z71Mpb9uZYnYrAH-iIIc-409" vertex="1">
          <mxGeometry y="164" width="460" height="26" as="geometry" />
        </mxCell>
        <mxCell id="z71Mpb9uZYnYrAH-iIIc-423" style="edgeStyle=orthogonalEdgeStyle;curved=0;rounded=1;sketch=1;orthogonalLoop=1;jettySize=auto;html=1;exitX=1;exitY=0.5;exitDx=0;exitDy=0;entryX=0;entryY=0.5;entryDx=0;entryDy=0;strokeColor=#788AA3;fontColor=#46495D;" parent="1" source="z71Mpb9uZYnYrAH-iIIc-363" target="z71Mpb9uZYnYrAH-iIIc-392" edge="1">
          <mxGeometry relative="1" as="geometry">
            <Array as="points">
              <mxPoint x="580" y="559" />
              <mxPoint x="580" y="660" />
              <mxPoint x="100" y="660" />
              <mxPoint x="100" y="883" />
            </Array>
          </mxGeometry>
        </mxCell>
        <mxCell id="z71Mpb9uZYnYrAH-iIIc-425" value="" style="endArrow=block;dashed=1;endFill=0;endSize=12;html=1;exitX=0.25;exitY=1;exitDx=0;exitDy=0;entryX=0;entryY=0.5;entryDx=0;entryDy=0;strokeColor=#788AA3;fontColor=#46495D;" parent="1" source="z71Mpb9uZYnYrAH-iIIc-374" target="z71Mpb9uZYnYrAH-iIIc-365" edge="1">
          <mxGeometry width="160" relative="1" as="geometry">
            <mxPoint x="90" y="560" as="sourcePoint" />
            <mxPoint x="190" y="560" as="targetPoint" />
          </mxGeometry>
        </mxCell>
        <mxCell id="z71Mpb9uZYnYrAH-iIIc-430" value="Use" style="endArrow=open;endSize=12;dashed=1;html=1;entryX=0;entryY=0.5;entryDx=0;entryDy=0;exitX=0;exitY=0.5;exitDx=0;exitDy=0;strokeColor=#788AA3;fontColor=#46495D;" parent="1" source="z71Mpb9uZYnYrAH-iIIc-385" target="z71Mpb9uZYnYrAH-iIIc-403" edge="1">
          <mxGeometry width="160" relative="1" as="geometry">
            <mxPoint x="210" y="1250" as="sourcePoint" />
            <mxPoint x="370" y="1250" as="targetPoint" />
          </mxGeometry>
        </mxCell>
        <mxCell id="z71Mpb9uZYnYrAH-iIIc-432" value="DispatchKeyExtractor" style="swimlane;fontStyle=1;align=center;verticalAlign=top;childLayout=stackLayout;horizontal=1;startSize=26;horizontalStack=0;resizeParent=1;resizeParentMax=0;resizeLast=0;collapsible=1;marginBottom=0;rounded=1;sketch=1;fillColor=#B2C9AB;strokeColor=#788AA3;fontColor=#46495D;" parent="1" vertex="1">
          <mxGeometry x="700" y="1410" width="280" height="164" as="geometry" />
        </mxCell>
        <mxCell id="z71Mpb9uZYnYrAH-iIIc-433" value="+dispatch_arg_indices_reverse_: c10::utils::bitset" style="text;strokeColor=none;fillColor=none;align=left;verticalAlign=top;spacingLeft=4;spacingRight=4;overflow=hidden;rotatable=0;points=[[0,0.5],[1,0.5]];portConstraint=eastwest;fontColor=#46495D;" parent="z71Mpb9uZYnYrAH-iIIc-432" vertex="1">
          <mxGeometry y="26" width="280" height="26" as="geometry" />
        </mxCell>
        <mxCell id="z71Mpb9uZYnYrAH-iIIc-436" value="" style="line;strokeWidth=1;fillColor=none;align=left;verticalAlign=middle;spacingTop=-1;spacingLeft=3;spacingRight=3;rotatable=0;labelPosition=right;points=[];portConstraint=eastwest;strokeColor=#788AA3;fontColor=#46495D;" parent="z71Mpb9uZYnYrAH-iIIc-432" vertex="1">
          <mxGeometry y="52" width="280" height="8" as="geometry" />
        </mxCell>
        <mxCell id="z71Mpb9uZYnYrAH-iIIc-439" value="computeDispatchKeySet" style="text;strokeColor=none;fillColor=none;align=left;verticalAlign=top;spacingLeft=4;spacingRight=4;overflow=hidden;rotatable=0;points=[[0,0.5],[1,0.5]];portConstraint=eastwest;fontColor=#46495D;" parent="z71Mpb9uZYnYrAH-iIIc-432" vertex="1">
          <mxGeometry y="60" width="280" height="26" as="geometry" />
        </mxCell>
        <mxCell id="z71Mpb9uZYnYrAH-iIIc-444" style="edgeStyle=orthogonalEdgeStyle;curved=0;rounded=1;sketch=1;orthogonalLoop=1;jettySize=auto;html=1;exitX=0;exitY=0.5;exitDx=0;exitDy=0;entryX=0;entryY=0.5;entryDx=0;entryDy=0;strokeColor=#788AA3;fontColor=#46495D;" parent="z71Mpb9uZYnYrAH-iIIc-432" source="z71Mpb9uZYnYrAH-iIIc-437" target="z71Mpb9uZYnYrAH-iIIc-441" edge="1">
          <mxGeometry relative="1" as="geometry">
            <Array as="points">
              <mxPoint x="-40" y="99" />
              <mxPoint x="-40" y="125" />
            </Array>
          </mxGeometry>
        </mxCell>
        <mxCell id="z71Mpb9uZYnYrAH-iIIc-437" value="registerSchema" style="text;strokeColor=none;fillColor=none;align=left;verticalAlign=top;spacingLeft=4;spacingRight=4;overflow=hidden;rotatable=0;points=[[0,0.5],[1,0.5]];portConstraint=eastwest;fontColor=#46495D;" parent="z71Mpb9uZYnYrAH-iIIc-432" vertex="1">
          <mxGeometry y="86" width="280" height="26" as="geometry" />
        </mxCell>
        <mxCell id="z71Mpb9uZYnYrAH-iIIc-441" value="makeBitsetForDispatchArgs" style="text;strokeColor=none;fillColor=none;align=left;verticalAlign=top;spacingLeft=4;spacingRight=4;overflow=hidden;rotatable=0;points=[[0,0.5],[1,0.5]];portConstraint=eastwest;fontColor=#46495D;" parent="z71Mpb9uZYnYrAH-iIIc-432" vertex="1">
          <mxGeometry y="112" width="280" height="26" as="geometry" />
        </mxCell>
        <mxCell id="z71Mpb9uZYnYrAH-iIIc-438" value="getDispatchKeySetBoxed" style="text;strokeColor=none;fillColor=none;align=left;verticalAlign=top;spacingLeft=4;spacingRight=4;overflow=hidden;rotatable=0;points=[[0,0.5],[1,0.5]];portConstraint=eastwest;fontColor=#46495D;" parent="z71Mpb9uZYnYrAH-iIIc-432" vertex="1">
          <mxGeometry y="138" width="280" height="26" as="geometry" />
        </mxCell>
        <mxCell id="z71Mpb9uZYnYrAH-iIIc-442" style="edgeStyle=orthogonalEdgeStyle;curved=0;rounded=1;sketch=1;orthogonalLoop=1;jettySize=auto;html=1;exitX=0;exitY=0.5;exitDx=0;exitDy=0;entryX=0;entryY=0.5;entryDx=0;entryDy=0;strokeColor=#788AA3;fontColor=#46495D;" parent="1" source="z71Mpb9uZYnYrAH-iIIc-403" target="z71Mpb9uZYnYrAH-iIIc-418" edge="1">
          <mxGeometry relative="1" as="geometry">
            <Array as="points">
              <mxPoint x="120" y="1239" />
              <mxPoint x="120" y="1521" />
            </Array>
          </mxGeometry>
        </mxCell>
        <mxCell id="z71Mpb9uZYnYrAH-iIIc-443" style="edgeStyle=orthogonalEdgeStyle;curved=0;rounded=1;sketch=1;orthogonalLoop=1;jettySize=auto;html=1;exitX=0;exitY=0.5;exitDx=0;exitDy=0;entryX=0;entryY=0.5;entryDx=0;entryDy=0;strokeColor=#788AA3;fontColor=#46495D;" parent="1" source="z71Mpb9uZYnYrAH-iIIc-418" target="z71Mpb9uZYnYrAH-iIIc-437" edge="1">
          <mxGeometry relative="1" as="geometry">
            <Array as="points">
              <mxPoint x="140" y="1521" />
              <mxPoint x="140" y="1510" />
              <mxPoint x="700" y="1510" />
            </Array>
          </mxGeometry>
        </mxCell>
        <mxCell id="z71Mpb9uZYnYrAH-iIIc-445" value="Set Dispatch indice with signature&amp;nbsp;" style="edgeLabel;html=1;align=center;verticalAlign=middle;resizable=0;points=[];fontColor=#46495D;" parent="z71Mpb9uZYnYrAH-iIIc-443" vertex="1" connectable="0">
          <mxGeometry x="-0.1878" y="1" relative="1" as="geometry">
            <mxPoint as="offset" />
          </mxGeometry>
        </mxCell>
        <mxCell id="z71Mpb9uZYnYrAH-iIIc-449" value="" style="endArrow=block;dashed=1;endFill=0;endSize=12;html=1;exitX=0.25;exitY=1;exitDx=0;exitDy=0;entryX=0;entryY=0.5;entryDx=0;entryDy=0;strokeColor=#788AA3;fontColor=#46495D;" parent="1" source="z71Mpb9uZYnYrAH-iIIc-370" target="z71Mpb9uZYnYrAH-iIIc-366" edge="1">
          <mxGeometry width="160" relative="1" as="geometry">
            <mxPoint x="740" y="350" as="sourcePoint" />
            <mxPoint x="900" y="350" as="targetPoint" />
          </mxGeometry>
        </mxCell>
        <mxCell id="z71Mpb9uZYnYrAH-iIIc-450" style="edgeStyle=orthogonalEdgeStyle;curved=0;rounded=1;sketch=1;orthogonalLoop=1;jettySize=auto;html=1;exitX=1;exitY=0.5;exitDx=0;exitDy=0;strokeColor=#788AA3;fontColor=#46495D;" parent="1" source="z71Mpb9uZYnYrAH-iIIc-366" target="z71Mpb9uZYnYrAH-iIIc-381" edge="1">
          <mxGeometry relative="1" as="geometry">
            <Array as="points">
              <mxPoint x="630" y="619" />
              <mxPoint x="630" y="700" />
              <mxPoint x="60" y="700" />
              <mxPoint x="60" y="835" />
            </Array>
          </mxGeometry>
        </mxCell>
        <mxCell id="z71Mpb9uZYnYrAH-iIIc-451" style="edgeStyle=orthogonalEdgeStyle;curved=0;rounded=1;sketch=1;orthogonalLoop=1;jettySize=auto;html=1;exitX=0;exitY=0.5;exitDx=0;exitDy=0;entryX=0;entryY=0.5;entryDx=0;entryDy=0;strokeColor=#788AA3;fontColor=#46495D;" parent="1" source="z71Mpb9uZYnYrAH-iIIc-392" target="z71Mpb9uZYnYrAH-iIIc-385" edge="1">
          <mxGeometry relative="1" as="geometry">
            <Array as="points">
              <mxPoint x="90" y="883" />
              <mxPoint x="90" y="1069" />
            </Array>
          </mxGeometry>
        </mxCell>
        <mxCell id="z71Mpb9uZYnYrAH-iIIc-452" style="edgeStyle=orthogonalEdgeStyle;curved=0;rounded=1;sketch=1;orthogonalLoop=1;jettySize=auto;html=1;exitX=0;exitY=0.5;exitDx=0;exitDy=0;entryX=0;entryY=0.5;entryDx=0;entryDy=0;strokeColor=#788AA3;fontColor=#46495D;" parent="1" source="z71Mpb9uZYnYrAH-iIIc-381" target="z71Mpb9uZYnYrAH-iIIc-385" edge="1">
          <mxGeometry relative="1" as="geometry">
            <Array as="points">
              <mxPoint x="60" y="835" />
              <mxPoint x="60" y="1069" />
            </Array>
          </mxGeometry>
        </mxCell>
        <mxCell id="z71Mpb9uZYnYrAH-iIIc-454" style="edgeStyle=orthogonalEdgeStyle;curved=0;rounded=1;sketch=1;orthogonalLoop=1;jettySize=auto;html=1;exitX=0;exitY=0.5;exitDx=0;exitDy=0;entryX=0;entryY=0.5;entryDx=0;entryDy=0;strokeColor=#788AA3;fontColor=#46495D;" parent="1" source="z71Mpb9uZYnYrAH-iIIc-403" target="z71Mpb9uZYnYrAH-iIIc-431" edge="1">
          <mxGeometry relative="1" as="geometry">
            <Array as="points">
              <mxPoint x="70" y="1239" />
              <mxPoint x="70" y="1495" />
            </Array>
          </mxGeometry>
        </mxCell>
        <mxCell id="z71Mpb9uZYnYrAH-iIIc-466" style="edgeStyle=orthogonalEdgeStyle;curved=0;rounded=1;sketch=1;orthogonalLoop=1;jettySize=auto;html=1;exitX=0.5;exitY=1;exitDx=0;exitDy=0;entryX=0.5;entryY=0;entryDx=0;entryDy=0;strokeColor=#788AA3;fontColor=#46495D;" parent="1" source="z71Mpb9uZYnYrAH-iIIc-455" target="z71Mpb9uZYnYrAH-iIIc-460" edge="1">
          <mxGeometry relative="1" as="geometry">
            <mxPoint x="777" y="391" as="sourcePoint" />
            <mxPoint x="782" y="991" as="targetPoint" />
          </mxGeometry>
        </mxCell>
        <mxCell id="z71Mpb9uZYnYrAH-iIIc-455" value="op.call" style="html=1;rounded=1;sketch=1;fillColor=#B2C9AB;strokeColor=#788AA3;fontColor=#46495D;" parent="1" vertex="1">
          <mxGeometry x="715" y="340" width="160" height="50" as="geometry" />
        </mxCell>
        <mxCell id="z71Mpb9uZYnYrAH-iIIc-482" style="edgeStyle=orthogonalEdgeStyle;curved=0;rounded=1;sketch=1;orthogonalLoop=1;jettySize=auto;html=1;exitX=0.75;exitY=0;exitDx=0;exitDy=0;strokeColor=#788AA3;fontColor=#46495D;" parent="1" source="z71Mpb9uZYnYrAH-iIIc-460" edge="1">
          <mxGeometry relative="1" as="geometry">
            <mxPoint x="863" y="700" as="targetPoint" />
          </mxGeometry>
        </mxCell>
        <mxCell id="z71Mpb9uZYnYrAH-iIIc-460" value="TypedOperatorHandle" style="swimlane;fontStyle=1;align=center;verticalAlign=top;childLayout=stackLayout;horizontal=1;startSize=26;horizontalStack=0;resizeParent=1;resizeParentMax=0;resizeLast=0;collapsible=1;marginBottom=0;rounded=1;sketch=1;fillColor=#B2C9AB;strokeColor=#788AA3;fontColor=#46495D;" parent="1" vertex="1">
          <mxGeometry x="660" y="1030" width="270" height="86" as="geometry" />
        </mxCell>
        <mxCell id="z71Mpb9uZYnYrAH-iIIc-463" value="" style="line;strokeWidth=1;fillColor=none;align=left;verticalAlign=middle;spacingTop=-1;spacingLeft=3;spacingRight=3;rotatable=0;labelPosition=right;points=[];portConstraint=eastwest;strokeColor=#788AA3;fontColor=#46495D;" parent="z71Mpb9uZYnYrAH-iIIc-460" vertex="1">
          <mxGeometry y="26" width="270" height="8" as="geometry" />
        </mxCell>
        <mxCell id="z71Mpb9uZYnYrAH-iIIc-464" value="+ redispatch" style="text;strokeColor=none;fillColor=none;align=left;verticalAlign=top;spacingLeft=4;spacingRight=4;overflow=hidden;rotatable=0;points=[[0,0.5],[1,0.5]];portConstraint=eastwest;fontColor=#46495D;" parent="z71Mpb9uZYnYrAH-iIIc-460" vertex="1">
          <mxGeometry y="34" width="270" height="26" as="geometry" />
        </mxCell>
        <mxCell id="z71Mpb9uZYnYrAH-iIIc-465" value="+ call" style="text;strokeColor=none;fillColor=none;align=left;verticalAlign=top;spacingLeft=4;spacingRight=4;overflow=hidden;rotatable=0;points=[[0,0.5],[1,0.5]];portConstraint=eastwest;fontColor=#46495D;" parent="z71Mpb9uZYnYrAH-iIIc-460" vertex="1">
          <mxGeometry y="60" width="270" height="26" as="geometry" />
        </mxCell>
        <mxCell id="z71Mpb9uZYnYrAH-iIIc-471" value="" style="endArrow=none;html=1;edgeStyle=orthogonalEdgeStyle;exitX=0.75;exitY=0;exitDx=0;exitDy=0;entryX=0.359;entryY=-0.023;entryDx=0;entryDy=0;entryPerimeter=0;strokeColor=#788AA3;fontColor=#46495D;" parent="1" source="z71Mpb9uZYnYrAH-iIIc-384" target="z71Mpb9uZYnYrAH-iIIc-460" edge="1">
          <mxGeometry relative="1" as="geometry">
            <mxPoint x="600" y="980" as="sourcePoint" />
            <mxPoint x="760" y="980" as="targetPoint" />
            <Array as="points">
              <mxPoint x="495" y="990" />
              <mxPoint x="757" y="990" />
            </Array>
          </mxGeometry>
        </mxCell>
        <mxCell id="z71Mpb9uZYnYrAH-iIIc-472" value="parent" style="edgeLabel;resizable=0;html=1;align=left;verticalAlign=bottom;fontColor=#46495D;" parent="z71Mpb9uZYnYrAH-iIIc-471" connectable="0" vertex="1">
          <mxGeometry x="-1" relative="1" as="geometry" />
        </mxCell>
        <mxCell id="z71Mpb9uZYnYrAH-iIIc-473" value="child" style="edgeLabel;resizable=0;html=1;align=right;verticalAlign=bottom;fontColor=#46495D;" parent="z71Mpb9uZYnYrAH-iIIc-471" connectable="0" vertex="1">
          <mxGeometry x="1" relative="1" as="geometry" />
        </mxCell>
        <mxCell id="z71Mpb9uZYnYrAH-iIIc-476" style="edgeStyle=orthogonalEdgeStyle;curved=0;rounded=1;sketch=1;orthogonalLoop=1;jettySize=auto;html=1;exitX=0;exitY=0.5;exitDx=0;exitDy=0;entryX=0;entryY=0.5;entryDx=0;entryDy=0;strokeColor=#788AA3;fontColor=#46495D;" parent="1" source="z71Mpb9uZYnYrAH-iIIc-465" target="z71Mpb9uZYnYrAH-iIIc-475" edge="1">
          <mxGeometry relative="1" as="geometry">
            <Array as="points">
              <mxPoint x="660" y="1150" />
              <mxPoint x="130" y="1150" />
              <mxPoint x="130" y="935" />
            </Array>
          </mxGeometry>
        </mxCell>
        <mxCell id="z71Mpb9uZYnYrAH-iIIc-478" value="Use" style="endArrow=open;endSize=12;dashed=1;html=1;entryX=0;entryY=0.5;entryDx=0;entryDy=0;strokeColor=#788AA3;fontColor=#46495D;" parent="1" target="z71Mpb9uZYnYrAH-iIIc-439" edge="1">
          <mxGeometry width="160" relative="1" as="geometry">
            <mxPoint x="150" y="940" as="sourcePoint" />
            <mxPoint x="240" y="1170" as="targetPoint" />
          </mxGeometry>
        </mxCell>
        <mxCell id="z71Mpb9uZYnYrAH-iIIc-479" value="Use" style="endArrow=open;endSize=12;dashed=1;html=1;entryX=0;entryY=0.5;entryDx=0;entryDy=0;strokeColor=#788AA3;fontColor=#46495D;" parent="1" target="z71Mpb9uZYnYrAH-iIIc-413" edge="1">
          <mxGeometry width="160" relative="1" as="geometry">
            <mxPoint x="150" y="930" as="sourcePoint" />
            <mxPoint x="710" y="1493" as="targetPoint" />
          </mxGeometry>
        </mxCell>
        <mxCell id="z71Mpb9uZYnYrAH-iIIc-480" value="kernel" style="html=1;rounded=1;sketch=1;fillColor=#B2C9AB;strokeColor=#788AA3;fontColor=#46495D;" parent="1" vertex="1">
          <mxGeometry x="350" y="1600" width="110" height="50" as="geometry" />
        </mxCell>
        <mxCell id="z71Mpb9uZYnYrAH-iIIc-481" style="edgeStyle=orthogonalEdgeStyle;curved=0;rounded=1;sketch=1;orthogonalLoop=1;jettySize=auto;html=1;exitX=0;exitY=0.5;exitDx=0;exitDy=0;entryX=0;entryY=0.5;entryDx=0;entryDy=0;strokeColor=#788AA3;fontColor=#46495D;" parent="1" source="z71Mpb9uZYnYrAH-iIIc-413" target="z71Mpb9uZYnYrAH-iIIc-480" edge="1">
          <mxGeometry relative="1" as="geometry" />
        </mxCell>
        <mxCell id="z71Mpb9uZYnYrAH-iIIc-484" style="edgeStyle=orthogonalEdgeStyle;curved=0;rounded=1;sketch=1;orthogonalLoop=1;jettySize=auto;html=1;exitX=0;exitY=0.5;exitDx=0;exitDy=0;entryX=1;entryY=0.5;entryDx=0;entryDy=0;strokeColor=#788AA3;fontColor=#46495D;" parent="1" source="z71Mpb9uZYnYrAH-iIIc-483" target="z71Mpb9uZYnYrAH-iIIc-382" edge="1">
          <mxGeometry relative="1" as="geometry" />
        </mxCell>
        <mxCell id="z71Mpb9uZYnYrAH-iIIc-483" value="op.redispatch" style="html=1;rounded=1;sketch=1;fillColor=#B2C9AB;strokeColor=#788AA3;fontColor=#46495D;" parent="1" vertex="1">
          <mxGeometry x="750" y="650" width="160" height="50" as="geometry" />
        </mxCell>
        <mxCell id="z71Mpb9uZYnYrAH-iIIc-485" style="edgeStyle=orthogonalEdgeStyle;curved=0;rounded=1;sketch=1;orthogonalLoop=1;jettySize=auto;html=1;exitX=0;exitY=0.5;exitDx=0;exitDy=0;entryX=0;entryY=0.5;entryDx=0;entryDy=0;strokeColor=#788AA3;fontColor=#46495D;" parent="1" source="z71Mpb9uZYnYrAH-iIIc-382" target="z71Mpb9uZYnYrAH-iIIc-413" edge="1">
          <mxGeometry relative="1" as="geometry">
            <Array as="points">
              <mxPoint x="40" y="961" />
              <mxPoint x="40" y="1547" />
            </Array>
          </mxGeometry>
        </mxCell>
      </root>
    </mxGraphModel>
  </diagram>
</mxfile>
